<svg class="svg-icon" style="width: 1em; height: 1em;vertical-align: middle;fill: currentColor;overflow: hidden;" viewBox="0 0 1024 1024" version="1.1" xmlns="http://www.w3.org/2000/svg"><path d="M518.31087445 685.30631111l-155.34459335 65.05054777 13.1072-168.93724445-109.71211776-128.64473998 163.59727332-39.3216L518.31087445 269.27407445l87.86678443 144.1792 163.59727445 39.3216-109.7121189 128.64473998 13.59265224 168.45179336-155.34459222-64.56509668z m-18.44717112-164.08272554c0-27.18530333-47.5742811-61.65238557-91.7504-72.33232669s-28.64165888 32.52527445-24.27259222 50.00154112c4.36906667 17.9617189 15.04900779 16.01991111 15.04900779 21.84533333 0 10.67994112-12.13629667 18.44716999-15.04900779 29.12711112-4.8545189 19.90352555 16.01991111 44.66156999 32.52527446 40.29250332 16.50536334-3.39816334 83.4977189-41.74885888 83.49771776-68.9341622z m28.64166001 2.42725888c0 27.18530333 66.99235555 65.536 83.49771776 69.41961443s37.37979221-20.38897778 32.52527445-40.29250333c-2.42725888-10.67994112-15.04900779-18.44716999-15.04900778-29.1271111 0-6.31087445 10.67994112-4.36906667 15.04900778-21.84533334 4.36906667-17.9617189 19.41807445-60.6814811-24.27259221-50.00154112-43.69066667 10.19448889-91.7504 44.66156999-91.7504 71.84687446z" fill="#FFDC45" /><path d="M494.52373333 518.72350777c0 22.81623666-55.82696334 54.37060779-69.41961443 57.76877113-13.59265223 3.39816334-31.0689189-16.99081443-27.18530447-33.49617778 2.42725888-8.73813333 12.62174777-15.53445888 12.62174891-24.27259335 0-4.8545189-8.73813333-3.39816334-12.62174891-18.44716999s-15.53445888-50.00154112 20.87443002-41.74885888 75.73048889 37.37979221 75.73048888 60.19602887zM528.99081443 533.77251555c0 23.30168889 57.2833189 56.31241443 71.84687446 59.71057778 14.07810333 3.39816334 32.52527445-17.47626667 28.15620778-34.95253333-2.42725888-9.22358557-12.62174777-16.01991111-12.6217489-24.75804445 0-5.33996999 9.22358557-3.39816334 12.6217489-18.93262222 3.88361443-15.04900779 16.50536334-51.94334777-20.87443-43.20521443s-79.12865223 38.83614777-79.12865224 62.13783665z" fill="#FF5E5E" /><path d="M409.08420779 445.4202789c-15.04900779-3.39816334-25.72894777-0.97090333-31.0689189 6.31087331-4.36906667 6.31087445-4.8545189 14.56355555-3.39816334 25.72894891 0.48545223 3.88361443 1.45635555 7.76723001 2.91271111 13.1072 0.48545223 1.45635555 1.94180779 8.2526811 2.42726001 9.70903666 1.45635555 6.31087445 3.88361443 11.16539221 7.28177778 14.56355555 0.97090333 1.45635555 2.42725888 2.42725888 3.88361444 3.39816334 0 0 2.42725888 1.45635555 2.91271111 1.94180666 0.97090333 0.48545223 0.97090333 0.97090333 0.97090333 0.97090446 0 3.39816334-1.45635555 6.79632555-5.82542223 12.62174776-0.48545223 0.48545223-0.48545223 0.97090333-0.97090332 1.45635556-4.8545189 6.31087445-6.79632555 9.70903666-7.76723001 14.07810332-5.33996999 21.84533333 17.47626667 50.00154112 36.89434112 44.66157114 9.70903666-2.42725888 31.55436999-14.07810333 49.03063666-26.69985224 22.81623666-16.50536334 36.89434112-32.52527445 36.89434112-46.60337778 0-27.67075555-47.08883001-64.07964445-94.17765888-75.24503665z m31.06891776 58.25422222c5.33996999-1.45635555 13.1072-0.97090333 22.33078556 1.45635555 4.8545189 0.97090333 10.67994112 2.91271111 16.01991111 4.85451776 4.36906667 1.45635555 8.73813333 2.91271111 12.62174777 4.8545189 1.45635555 0.48545223 2.42725888 0.97090333 3.88361558 1.45635556 0 0 0.48545223 0 0.48545109 0.48545223 0.48545223 1.45635555 0.48545223 2.42725888 0.48545223 3.88361443-4.36906667 3.39816334-9.22358557 5.82542222-15.04900779 7.76723002-6.79632555 2.42725888-14.07810333 3.88361443-20.87442887 4.85451776-4.36906667 0.48545223-8.2526811 0.48545223-10.67994112 0.48545222v7.28177778c2.91271111 0 6.79632555 0 11.65084444-0.48545223 7.76723001-0.97090333 15.53445888-2.42725888 22.81623666-5.33996999l10.19448889-4.36906666c-4.8545189 9.22358557-16.01991111 19.90352555-31.55436999 31.06891889-16.99081443 12.13629667-37.86524445 23.30168889-46.60337778 25.72894777-14.07810333 3.39816334-32.52527445-18.93262222-28.15620778-35.92343666 0.97090333-3.39816334 2.42725888-5.82542222 6.79632668-11.65084444 0.48545223-0.97090333 0.97090333-0.97090333 0.97090332-1.45635556 4.8545189-6.79632555 7.28177778-11.16539221 7.28177778-16.99081557 0-2.91271111-1.45635555-4.8545189-3.39816334-6.79632555-0.48545223-0.48545223-2.91271111-1.94180779-2.91271111-1.94180778-0.97090333-0.97090333-1.94180779-1.45635555-2.91271111-2.42725888-2.42725888-2.42725888-4.36906667-6.31087445-5.82542222-11.16539222-0.48545223-1.45635555-1.94180779-8.2526811-2.42725888-9.70903779-1.94180779-5.33996999-2.42725888-9.22358557-3.39816334-13.1072-1.45635555-9.22358557-0.97090333-16.01991111 1.94180778-20.38897778 3.39816334-4.8545189 10.67994112-6.31087445 23.30168889-3.39816221 35.92343666 8.2526811 71.84687445 32.52527445 84.46862222 54.37060666-3.39816334-1.45635555-6.79632555-2.91271111-10.67994112-3.88361444-5.82542222-1.94180779-11.65084445-3.88361443-16.99081443-4.8545189-10.67994112-2.42725888-19.41807445-2.91271111-25.72894777-1.45635556l1.94180665 6.79632669zM650.35377778 454.64386333c-5.33996999-7.76723001-15.53445888-9.70903666-31.0689189-6.31087332-47.08883001 11.16539221-94.17765888 47.08883001-94.17765888 75.73048889 0 14.07810333 14.07810333 30.09801443 36.89434112 46.60337777 17.47626667 12.62174777 39.3216 24.27259221 49.03063666 26.6998511 19.90352555 4.8545189 42.71976334-22.81623666 36.89434112-44.66156999-0.97090333-4.36906667-2.91271111-7.76723001-7.76723001-14.07810333-0.48545223-0.97090333-0.97090333-0.97090333-0.97090332-1.45635555-4.36906667-5.82542222-5.82542222-8.73813333-5.82542223-12.62174891 0-0.48545223 0-0.48545223 0.97090333-0.97090332 0.48545223-0.48545223 2.42725888-1.94180779 2.91271111-1.94180779 1.45635555-0.97090333 2.42725888-1.94180779 3.88361443-3.39816221 3.39816334-3.39816334 5.82542222-8.2526811 7.28177778-14.56355555 0.48545223-1.45635555 1.94180779-8.2526811 2.42726002-9.70903779 1.45635555-4.8545189 1.94180779-8.73813333 2.91271111-13.1072 1.45635555-11.65084445 0.97090333-20.38897778-3.39816334-26.2144z m-3.88361444 24.75804444c-0.48545223 3.88361443-1.45635555 7.76723001-2.42726001 12.13629668-0.48545223 1.45635555-1.94180779 8.2526811-2.42725888 9.70903665-1.45635555 5.33996999-3.39816334 8.73813333-5.82542223 11.16539335-0.97090333 0.97090333-1.94180779 1.45635555-2.91271111 2.42725888 0 0-2.42725888 1.45635555-2.91271111 1.94180779-2.42725888 1.94180779-3.39816334 3.88361443-3.39816334 6.79632555 0 5.33996999 1.94180779 9.70903666 7.28177777 16.99081443 0.48545223 0.48545223 0.48545223 0.97090333 0.97090447 1.45635556 4.36906667 5.82542222 5.82542222 8.2526811 6.79632555 11.65084444 4.36906667 16.99081443-14.07810333 39.3216-28.15620779 35.9234378-8.73813333-1.94180779-29.61256334-13.59265223-46.60337778-25.72894891-17.9617189-13.1072-30.09801443-25.72894777-33.01072555-35.43798442 3.88361443 2.42725888 8.2526811 4.36906667 13.1072 6.31087331 7.28177778 2.42725888 15.04900779 4.36906667 22.81623666 5.33997113 4.8545189 0.48545223 8.73813333 0.97090333 11.65084444 0.48545109v-7.28177777c-2.42725888 0-6.31087445 0-10.67993998-0.4854511-7.28177778-0.97090333-14.56355555-2.42725888-20.87443-4.8545189-5.82542222-1.94180779-11.16539221-4.8545189-15.53445888-8.2526811l-0.48545224 0.97090332c0-0.97090333 0.48545223-2.42725888 0.97090333-3.39816334 0.97090333-0.48545223 1.45635555-0.97090333 2.91271111-0.97090332 3.88361443-1.45635555 8.2526811-3.39816334 12.6217489-4.8545189 5.33996999-1.94180779 11.16539221-3.39816334 16.01991112-4.85451776 9.22358557-2.42725888 16.99081443-2.91271111 22.33078442-1.45635556l1.94180779-7.28177777c-6.79632555-1.94180779-15.53445888-0.97090333-25.72894777 1.45635555-5.33996999 1.45635555-11.16539221 2.91271111-16.99081557 4.85451776-2.91271111 0.97090333-5.82542222 1.94180779-8.25268111 2.91271112 11.16539221-20.38897778 46.60337778-43.69066667 81.55591112-51.94334778 12.62174777-2.91271111 19.90352555-1.45635555 23.30168888 3.39816335 2.91271111 4.36906667 3.39816334 11.16539221 1.94180779 20.87442887z" fill="#D12C2C" /><path d="M792.1057189 443.55128889l-178.64628224-42.71976334-96.11946667-157.7718511c-1.45635555-2.42725888-4.8545189-2.42725888-6.31087332 0l-95.63401557 157.7718511-178.6462811 42.71976334c-2.42725888 0.48545223-3.88361443 3.88361443-1.94180779 5.82542222L354.22814777 589.67229667l-14.56355556 183.9862511c0 2.91271111 2.42725888 4.8545189 4.8545189 3.88361557l169.90814777-70.87597113 163.59727445 67.96326002 0.97090333 1.45635556 0.97090446-0.48545224 4.36906667 1.94180779c2.42725888 0.97090333 5.33996999-0.97090333 4.85451776-3.88361557l-14.56355556-183.9862511 119.42115556-140.29558556c1.94180779-1.94180779 0.97090333-5.33996999-1.94180665-5.82542222z m-7.28177778 5.82542222z m-540.30791111 0v0.48545223l-0.48545223-0.48545223h0.48545223z m102.91579221 317.97096334l0.97090333 0.97090333-1.45635556 0.48545223 0.48545223-1.45635556z m333.99087445 0.4854511l-62.13783779-76.70139222-5.33996999 4.36906667 54.37060778 67.47780779-152.43188224-63.59419336c-0.97090333-0.48545223-1.94180779-0.48545223-2.9127111 0L351.80088889 766.86222222l66.50690332-83.01226667-5.82542222-4.36906666L347.91727445 759.58044445l13.5926511-170.3936c0-0.97090333 0-1.94180779-0.97090333-2.42725888l-109.22666667-129.13019336 65.05054778 21.84533334 2.42726001-6.79632555-71.84687445-23.78714112 171.84995556-41.26340665c0.97090333 0 1.94180779-0.97090333 2.42725888-1.45635556l88.83768888-147.0919111-3.88361443 47.08882886 7.28177777 0.48545224 3.88361444-49.51608889 90.29404444 148.54826667c0.48545223 0.97090333 1.45635555 1.45635555 2.42726002 1.45635555l167.96633998 40.29250333-64.07964444 24.27259334 2.42726002 6.79632555 63.59419221-23.78714112-111.65392555 131.55745223c-0.97090333 0.97090333-0.97090333 1.94180779-0.97090446 2.91271112l14.07810446 178.6462811z" fill="#D12C2C" /></svg>